<svg width="2956" height="641" viewBox="0 0 2956 641" fill="none" xmlns="http://www.w3.org/2000/svg">
<path fill-rule="evenodd" clip-rule="evenodd" d="M735 0H727V641H735V0ZM300 22H301L301.445 25.2773C310.3 87.2345 336.345 148.186 377 196C377.919 197.103 378.837 198.208 379.754 199.312C384.113 204.544 388.49 209.675 393.402 214.402C395.148 216.148 396.721 217.988 398.312 219.875C401.733 223.837 405.494 227.279 409.422 230.73C411.056 232.169 412.673 233.628 414.266 235.113C422.042 242.347 430.492 248.665 439 255L440.797 256.348C479.336 285.151 527.622 308.536 575.586 315.605C576.577 315.767 577.161 315.863 577.738 315.988C578.568 316.168 579.384 316.41 581.372 316.999L581.373 316.999L581.375 317C586.434 318.396 591.609 319.056 596.803 319.718C597.535 319.811 598.268 319.905 599 320C595.944 322.037 594.302 322.483 590.758 323.113L587.561 323.698L584.125 324.312C549.173 330.851 516.415 341.582 484.822 358.054C483.019 358.99 481.206 359.904 479.391 360.816C456.086 372.688 434.412 388.535 415 406L413.354 407.475C402.356 417.371 391.456 427.599 382 439L380.004 441.367C337.579 492.337 310.521 553.356 301 619C298.751 616.751 298.621 615.866 298.19 612.953L298.141 612.617L297.708 609.869L297.25 606.875C287.348 547.035 261.036 491.977 223 445L221.732 443.411C214.694 434.64 206.86 426.652 198.938 418.688L197.402 417.136C190.605 410.285 183.569 404.006 176 398C174.826 397.024 173.655 396.044 172.488 395.059C157.227 382.373 140.402 371.3 122.875 362.003C120.955 360.976 119.057 359.915 117.16 358.848C90.2811 343.909 60.1301 333.158 30 327C28.3706 326.642 26.7417 326.281 25.1133 325.918L25.1126 325.918L25.1112 325.918C20.0885 324.801 17.578 324.243 15.0473 323.8C12.5188 323.358 9.97013 323.03 4.87536 322.375L4.875 322.375L1 322L0 320L2.24609 319.684C40.3179 314.182 76.3817 302.887 111 286L113.489 284.795C134.829 274.352 154.686 261.095 173 246L174.809 244.521C189.856 232.181 204.417 218.866 217 204L219.414 201.25C242.849 174.378 260.293 143.33 275 111L275.912 109.002C284.157 90.6154 289.342 70.6434 293.938 51.0625L294.793 47.4255C296.43 40.2048 297.646 33.0121 298.573 25.6658C298.848 23.9497 298.946 23.3383 299.247 22.8538C299.414 22.5856 299.644 22.3563 300 22ZM1056.75 128.25C1069.1 138.629 1075.52 150.859 1077 167C1077.13 169.997 1077.13 172.987 1077.11 175.986L1077.11 178.591C1077.11 181.404 1077.11 184.218 1077.1 187.031C1077.1 188.993 1077.09 190.954 1077.09 192.916C1077.09 198.058 1077.08 203.2 1077.07 208.343C1077.06 213.641 1077.05 218.939 1077.05 224.236L1077.05 226.885C1077.04 234.607 1077.02 242.329 1077.01 250.051L1077.01 250.465L1077 255H1038L1037.92 237.668C1037.9 234.027 1037.87 230.385 1037.84 226.744C1037.79 220.975 1037.75 215.206 1037.73 209.437C1037.71 204.781 1037.68 200.126 1037.63 195.47C1037.62 193.702 1037.61 191.933 1037.61 190.164C1037.6 179.061 1036.98 169.929 1031.31 160.062C1024.72 154.18 1016.64 152.767 1008 153C998.627 153.943 992.069 156.67 986 164C981.417 170.887 979.764 178.469 979.681 186.679L979.651 188.899C979.62 191.296 979.603 193.693 979.586 196.09C979.576 196.994 979.565 197.898 979.555 198.802C979.546 199.569 979.537 200.337 979.527 201.104C979.476 205.485 979.436 209.867 979.399 214.248C979.359 218.735 979.308 223.222 979.258 227.709L979.231 230.047C979.157 236.746 979.096 243.446 979.035 250.145L979 254H940V120H978V134L982.812 130.312C1003.9 115.092 1035.11 112.224 1056.75 128.25ZM1204.72 155.492C1208.74 147.099 1212.74 138.727 1216 130C1189.3 112.766 1145.01 112.465 1118.68 129.957C1111.28 135.601 1104.75 142.639 1103 152C1102.05 161.867 1101.15 173.491 1107 182L1107 182.001C1111.3 187.542 1114.11 191.151 1117.65 193.747C1124.27 198.595 1133.48 199.912 1159.88 203.687C1160.37 203.753 1160.88 203.818 1161.38 203.883C1168.79 204.839 1176.24 205.801 1182 211L1182 211.001L1182 211.006C1182.41 212.711 1182.62 213.575 1182.63 214.439C1182.63 215.323 1182.42 216.209 1182 218C1180.1 221.804 1177.81 223.359 1173.94 224.812C1155.26 229.536 1134.21 224.899 1117.44 216.148C1115.98 215.386 1114.49 214.686 1113 214C1112.11 214.446 1111.61 214.693 1111.22 215.052C1110.74 215.497 1110.41 216.114 1109.67 217.494L1109.67 217.497L1109.67 217.497L1109.67 217.499L1109.67 217.5L1108.18 220.785C1107.36 222.583 1106.54 224.382 1105.72 226.184C1105.16 227.439 1104.59 228.693 1104.02 229.946C1102.34 233.627 1100.66 237.312 1099 241C1100.29 242.375 1101.63 243.702 1103 245C1123.83 257.03 1152.89 258.932 1176.28 255.521C1190.98 252.701 1206.03 246.902 1214.71 234.125L1216 232C1217.36 229.758 1218.39 227.635 1219.3 225.172C1221.3 216.081 1221.99 204.081 1217.25 195.777L1216 194L1214.75 192.129C1211.9 188.361 1209.98 185.832 1207.58 183.916C1202.68 180.007 1195.75 178.644 1174.69 174.5C1173.75 174.316 1172.8 174.133 1171.86 173.95C1166.16 172.841 1160.45 171.732 1154.79 170.422L1152.75 169.937C1147.86 168.8 1144.6 167.576 1141 164L1141 163.996C1140.67 162.249 1140.5 161.374 1140.5 160.5C1140.5 159.626 1140.67 158.751 1141 157.004L1141 157C1142.37 154.785 1143.63 153.268 1145.74 151.734C1160.38 144.977 1178.46 148.845 1192.88 154.125C1196.58 155.587 1200.05 156.436 1204 157L1204.72 155.492ZM2956 458C2953.68 442.151 2946.08 427.24 2933.64 416.957C2913.9 402.325 2884.51 396.158 2861.96 408.789L2860 410C2854.19 413.5 2849.63 417.119 2845.38 422.438L2842 427L2841 404H2823V583H2841L2842 512C2847.63 520.441 2854.02 526.121 2863.1 530.68L2866 532C2872.34 534.903 2878.04 536.06 2884.95 536.277C2904.53 536.517 2922.56 533.253 2937.38 519.25C2949.25 506.202 2956.23 490.186 2956.27 472.522L2956.25 469.563C2956.28 465.695 2956.26 461.86 2956 458ZM2938 462C2937.25 450.144 2931.75 438.565 2922.93 430.52C2903.24 414.987 2878.26 414.977 2858 429C2848.15 437.572 2841.9 449.997 2840.84 462.995C2839.94 479.201 2843.18 494.054 2854.21 506.488C2863.47 515.105 2874.07 520.044 2886.73 520.298L2889.12 520.313C2890.63 520.324 2892.13 520.32 2893.63 520.301C2905.6 519.779 2916.79 514.648 2925 506C2936.65 493.181 2938.62 478.819 2938 462ZM1131 350H1150V535H1132L1131 512L1127.06 516.562C1116.69 527.979 1104.08 535.035 1088.44 536.189C1085.77 536.267 1083.11 536.273 1080.44 536.25L1077.73 536.273C1061.88 536.227 1046.39 529.093 1034.81 518.375C1018.73 501.276 1016.15 481.323 1016.82 458.947C1017.81 442.314 1027.2 428.081 1039.12 417.039C1045.1 412.023 1051.79 408.885 1059 406L1061.5 404.961C1075.28 400.229 1092.66 401.663 1106 407L1108.72 408.062C1117.55 411.988 1124.03 418.54 1130 426L1131 350ZM1110.81 426.25C1121.59 433.536 1128.41 444.278 1131 457C1133.42 473.677 1130.78 488.773 1121.31 502.812C1114.54 511.636 1105.1 517.313 1094.21 519.582C1079.48 521.502 1065.43 520.248 1053.28 510.977C1042.75 501.848 1036.7 490.859 1035 477C1033.85 460.668 1036.35 446.59 1046.96 433.594C1063.54 415.615 1090.5 414.256 1110.81 426.25ZM2349.39 377.488C2351.65 379.608 2353.84 381.776 2356 384C2352.32 388.526 2348.59 392.394 2344 396L2342.23 394.461C2323.81 378.988 2303.31 375.775 2280 377C2261.48 379.355 2243.54 389.173 2232.09 403.938C2219.87 421.845 2216.61 441.335 2219.5 462.727C2220.16 465.585 2220.98 468.25 2222 471L2223.03 473.957C2229.96 492.192 2242.03 503.927 2259.12 512.578C2279.6 521.596 2302.32 521.482 2323.13 513.469C2327.63 511.628 2331.94 509.705 2336 507L2336 506.997L2336 506.976C2336.22 505.798 2336.34 505.161 2336.4 504.518C2336.47 503.764 2336.46 503.003 2336.43 501.357L2336.49 497.778L2336.51 493.898L2336.57 489.939C2336.61 486.463 2336.64 482.988 2336.67 479.513C2336.7 476.21 2336.74 472.907 2336.78 469.604L2336.79 468.875C2336.88 461.917 2336.94 454.959 2337 448H2355C2355.18 456.632 2355.33 465.263 2355.41 473.896C2355.46 477.906 2355.51 481.913 2355.6 485.922C2355.69 489.793 2355.74 493.663 2355.76 497.535C2355.77 499.009 2355.8 500.484 2355.85 501.958C2356.07 509.943 2356.14 512.401 2355.21 514.387C2354.79 515.269 2354.18 516.059 2353.29 517.199C2351.25 518.758 2349.31 519.896 2347 521C2345.82 521.713 2344.64 522.431 2343.46 523.16C2342.29 523.805 2341.12 524.439 2339.94 525.062L2338.01 526.084C2323.45 533.547 2308.65 536.383 2292.37 536.312L2290.36 536.307C2266.98 536.199 2247.19 530.161 2229 515L2227.02 513.492C2213.39 502.65 2205.29 485.462 2201 469L2200.45 466.95C2199.05 461.278 2198.72 455.954 2198.81 450.125L2198.84 447.452C2198.88 444.967 2198.94 442.484 2199 440L2199.05 436.82C2199.98 418.889 2209.14 401.119 2221 388L2222.93 385.859C2253.26 353.944 2315.47 347.185 2349.39 377.488ZM989 361H869V535H992V519H887V454H978V439L888 438L887 377H989V361ZM861 80H902V255H861V80ZM1557 155L1574 154V118C1558.09 118 1543.37 121.383 1531.75 132.938L1529 136L1528 120H1491V254H1530L1530.03 250.332L1530.04 250.151C1530.1 243.789 1530.16 237.426 1530.23 231.064L1530.26 229.016L1530.26 228.867C1530.31 224.553 1530.36 220.24 1530.4 215.926C1530.44 211.73 1530.48 207.535 1530.53 203.34C1530.54 202.47 1530.55 201.601 1530.56 200.731C1530.57 199.998 1530.58 199.265 1530.59 198.531C1530.6 196.237 1530.62 193.943 1530.65 191.649L1530.68 189.518C1530.77 181.372 1532.23 174.24 1536.4 167.176C1541.68 160.002 1548.47 156.744 1557 155ZM1914 414C1917.53 416.818 1920.8 419.814 1924 423L1925.68 424.57C1937.98 437.239 1941.54 455.686 1941.49 472.619C1940.99 490.834 1933.83 506.146 1921 519L1919.32 520.711C1905.11 534.043 1886.51 537.024 1867.83 536.445C1850.82 535.458 1835.64 527.329 1824 515C1809.73 497.695 1805.91 479.1 1808 457C1810.63 440.259 1820.2 425.086 1833.66 415.008C1857.29 399.163 1890.12 397.416 1914 414ZM1835.82 436.414C1826.71 449.355 1824.6 463.584 1826 479C1828.35 491.141 1834.27 503.79 1844.6 511.14C1857.86 519.752 1871.15 522.198 1886.71 519.313C1898.7 515.898 1909.32 509.652 1915.69 498.688C1923.31 483.953 1925.74 467.822 1920.97 451.699C1916.11 438.108 1907.44 428.153 1894.47 421.75C1873.81 413.393 1850.01 419.585 1835.82 436.414ZM2619.73 457.895C2616.88 440.213 2607.98 425.332 2593.46 414.625C2577.49 404.079 2559.12 400.524 2540.25 403.422L2538 404C2525.49 407.047 2513.54 412.277 2504.73 421.949L2503 424C2492.25 436.268 2487.02 449.564 2486.65 465.794C2486.52 483.045 2489.71 501.476 2502.33 514.434L2504 516C2515.16 527.283 2528.65 534.884 2544.67 536.223C2564.65 537.307 2582.54 534.174 2598.25 520.813C2609.87 509.586 2619.55 494.425 2620.01 477.746L2620 475C2620.3 469.259 2620.46 463.606 2619.73 457.895ZM2519.07 431.516L2521 430C2529.2 423.311 2537.26 419.178 2547.96 418.691C2562.46 418.393 2576.84 420.921 2587.94 431.188C2596.75 441.204 2601.93 453.751 2602.42 467.072C2602.55 482.373 2597.89 496.826 2587.19 508.035C2576.88 517.293 2564.66 520.622 2551.08 520.473C2537.32 519.967 2526.7 515.169 2517.25 505.25C2506.42 492.613 2504.11 478.176 2505 462C2505.78 450.987 2510.64 438.932 2519.07 431.516ZM2077.54 412.106C2089.61 421.398 2095.93 433.972 2098 449C2098.44 454.828 2098.38 460.681 2098.32 466.524C2098.31 467.377 2098.3 468.23 2098.29 469.082C2098.29 470.992 2098.28 472.901 2098.28 474.811C2098.27 479.794 2098.24 484.776 2098.21 489.759C2098.18 494.409 2098.16 499.059 2098.15 503.708L2098.15 505.065C2098.11 515.043 2098.06 525.022 2098 535H2080L2079.94 527.739C2079.87 519.788 2079.8 511.837 2079.71 503.887C2079.66 499.07 2079.62 494.254 2079.58 489.437C2079.54 484.781 2079.49 480.126 2079.44 475.47C2079.43 474.433 2079.42 473.396 2079.41 472.359L2079.4 471.189L2079.4 470.164V470.16C2079.36 459.025 2079.33 453.511 2077.98 448.347C2076.65 443.283 2074.04 438.554 2068.88 429.19L2068.88 429.188C2062.22 423.067 2053.92 420.219 2045 420L2042.64 419.883C2028.91 419.489 2017.43 422.808 2007 432C1998.85 442.412 1995.9 453.599 1995.79 466.658L1995.76 468.907C1995.73 471.341 1995.71 473.776 1995.68 476.211C1995.66 477.906 1995.64 479.602 1995.62 481.297C1995.57 485.746 1995.52 490.194 1995.47 494.643C1995.42 498.885 1995.37 503.127 1995.32 507.369L1995.31 508.277C1995.2 517.185 1995.1 526.092 1995 535H1977V404H1994L1995 426L1997.88 421.938C2001.9 416.771 2006.43 413.378 2012 410L2014 408.785C2032.74 398.461 2060.13 399.978 2077.54 412.106ZM1215 404H1197C1196.92 413.93 1196.85 423.859 1196.8 433.789L1196.8 435.102L1196.8 435.189C1196.78 439.804 1196.76 444.42 1196.73 449.035C1196.68 453.993 1196.64 458.951 1196.63 463.909C1196.62 464.89 1196.62 465.871 1196.62 466.852C1196.62 467.776 1196.61 468.701 1196.61 469.625C1196.44 483.939 1197.03 497.043 1202.75 510.438C1208.78 521.095 1218.67 529.503 1230.28 533.223L1233 534C1242.32 536.826 1252.35 536.491 1262 536C1275.35 534.413 1287.23 527.971 1295.63 517.562L1299 513L1300 535H1317V404H1299C1298.94 412.794 1298.88 421.587 1298.79 430.381L1298.78 431.405C1298.74 435.562 1298.7 439.719 1298.67 443.877C1298.64 448.268 1298.61 452.659 1298.57 457.049C1298.55 458.735 1298.53 460.42 1298.51 462.105C1298.46 474.767 1298.08 486.627 1292.69 498.375C1287.63 507.622 1281.11 513.483 1271.06 517.039C1257.72 520.609 1244.41 520.729 1232.25 513.938C1230.38 512.825 1228.5 511.742 1226.56 510.75L1225 510V508C1215.99 497.103 1215.26 484.431 1215.29 470.858C1215.29 469.036 1215.29 467.215 1215.27 465.394C1215.23 460.589 1215.2 455.785 1215.2 450.98C1215.19 446.013 1215.17 441.046 1215.13 436.08C1215.07 427.877 1215.03 419.675 1215.01 411.473L1215 404ZM2655 404H2673L2673.04 411.736C2673.09 420.198 2673.16 428.659 2673.24 437.121C2673.28 442.248 2673.32 447.375 2673.35 452.502C2673.37 457.456 2673.41 462.41 2673.46 467.364C2673.48 469.248 2673.49 471.132 2673.5 473.016C2673.55 486.486 2673.86 498.249 2683 509C2689.61 515.15 2696.95 518.516 2706 519L2709.42 519.195C2722.87 519.607 2734.04 516.471 2743.97 507.152C2755.21 495.174 2755.31 480.45 2755.41 464.935L2755.41 464.84L2755.45 462.014L2755.47 459.565C2755.52 454.963 2755.56 450.362 2755.6 445.761C2755.64 441.447 2755.68 437.133 2755.73 432.819L2755.74 431.643C2755.84 422.428 2755.92 413.214 2756 404H2774V535H2757L2756 513L2750 521C2737.88 532.883 2723.9 536.269 2707.41 536.247C2691.51 536.024 2678.86 531.463 2667.23 520.492C2657.83 509.975 2654.82 496.844 2654.89 483.127L2654.89 480.523C2654.89 479.202 2654.89 477.881 2654.89 476.561C2654.89 475.59 2654.9 474.619 2654.9 473.649L2654.9 472.066C2654.9 470.103 2654.91 468.14 2654.91 466.177C2654.91 461.027 2654.92 455.876 2654.93 450.726C2654.94 445.464 2654.95 440.202 2654.95 434.939C2654.96 424.626 2654.98 414.313 2655 404ZM1455 120H1416V254H1455V120ZM1420.31 402.688L1423.09 402.705C1438.15 402.973 1452.8 407.492 1464 418C1468.85 423.393 1470.34 425.052 1470.8 426.96C1471 427.808 1471 428.705 1471 430C1469.81 430.928 1469.16 431.434 1468.49 431.912C1467.68 432.485 1466.84 433.017 1465 434.188L1463.27 435.303C1461.85 436.211 1460.43 437.107 1459 438L1456.7 435.688C1445.59 424.624 1434.7 419.879 1419.06 419.688C1405.72 419.742 1394.76 423.884 1384.85 432.992C1373.56 445.263 1371.16 460.764 1371.82 476.754C1372.8 488.73 1379.08 500.99 1388 509C1401.04 518.308 1414.32 520.496 1430 519C1441.98 516.683 1450.56 510.431 1458 501C1459.77 502.099 1461.54 503.205 1463.31 504.313L1466.3 506.176C1468.5 507.663 1470.23 509.04 1472 511C1460.99 525.705 1448.23 533.262 1430 536C1410.88 537.683 1392.66 534.92 1377.18 522.793C1374.69 520.611 1372.33 518.36 1370 516L1368.3 514.328C1355.66 500.89 1352.31 482.892 1352.46 465.102C1353.03 448.883 1359.55 433.483 1370.69 421.625C1384.55 408.698 1401.55 402.566 1420.31 402.688ZM1674 375H1656V404H1633V419H1656C1655.98 428.974 1655.96 438.948 1655.95 448.922C1655.95 454.01 1655.94 459.097 1655.93 464.185C1655.92 469.166 1655.91 474.148 1655.91 479.129C1655.91 481.026 1655.9 482.923 1655.9 484.82C1655.89 487.547 1655.89 490.274 1655.89 493.001L1655.89 495.516C1655.85 503.799 1656.69 511.356 1660 519C1664.42 526.796 1671.09 531.784 1679.44 534.875C1690.09 537.731 1703.58 537.417 1713.42 532.424L1715.31 531.438C1717.55 530.298 1719.77 529.153 1722 528C1722 526.5 1722 525.75 1721.84 525.038C1721.67 524.326 1721.34 523.651 1720.69 522.301L1719 519.312C1718.01 517.538 1717.01 515.766 1716 514C1711.43 516.313 1706.93 518.539 1702 520C1693.11 521.01 1686.66 519.583 1679.61 514.121C1675.79 509.099 1674.67 502.741 1674.56 496.549L1674.57 494.267C1674.54 491.675 1674.51 489.084 1674.5 486.492C1674.49 484.649 1674.48 482.806 1674.46 480.963C1674.41 476.119 1674.37 471.276 1674.35 466.432C1674.31 460.428 1674.26 454.424 1674.21 448.42L1674.21 448.034C1674.15 440.935 1674.12 437.323 1674.09 433.71C1674.07 430.098 1674.05 426.485 1674 419.386L1674 419H1714V404H1674V375ZM1389.78 173.711C1387.66 158.471 1379.37 142.27 1367.22 132.551C1344.05 116.36 1311.04 110.535 1287.44 129.25L1283 133L1282 120H1244V303H1283L1284 242L1284.16 242.125C1286.58 244.061 1289 245.998 1291.51 247.817L1294.12 249.563C1301.92 254.878 1310.52 256.362 1319.8 256.313L1322.75 256.25C1325.66 256.235 1328.56 256.206 1331.46 256.125C1346.22 255.399 1362.2 248.185 1372.2 237.176L1374 235C1384.69 222.17 1390.17 207.943 1390.33 191.298L1390.31 188.25C1390.29 183.393 1390.25 178.548 1389.78 173.711ZM1350.75 179.457C1349.37 170.109 1344.55 162.336 1337.17 156.473C1324.09 147.599 1306.51 148.718 1294 158C1287.11 164.72 1283.18 172.84 1282.69 182.457C1282.42 194.327 1283.7 205.458 1292 214.625C1298.4 220.514 1305.45 224.245 1314.21 224.504C1325.24 224.482 1334.19 222.065 1342.13 214.25C1348.85 206.324 1351.89 194.806 1351.29 184.512L1351 182L1350.75 179.457ZM2469 420V403L2468.28 402.983L2467.54 402.964L2467.52 402.964L2467.5 402.963L2467.48 402.963L2467.46 402.962C2461.85 402.82 2456.44 402.683 2450.98 404.316L2449 405C2438.75 408.376 2430.8 413.134 2424.38 421.938L2421 427L2420 404H2403V535H2421C2421.08 526.157 2421.16 517.315 2421.26 508.473L2421.27 507.343C2421.32 503.201 2421.36 499.059 2421.4 494.917C2421.44 490.502 2421.48 486.086 2421.53 481.671C2421.55 479.981 2421.57 478.291 2421.59 476.602C2421.69 461.98 2422.01 448.601 2430.34 435.961C2438.39 425.817 2449.22 422.315 2461.56 420.813L2469 420ZM1605.09 447.074C1604.56 434.963 1599.98 422.943 1590.99 414.625C1575.58 402.029 1556.72 401.446 1537.68 403.215C1525.61 404.72 1507.59 409.974 1499.53 419.789C1499.31 420.713 1499.18 421.251 1499.2 421.784C1499.22 422.526 1499.53 423.26 1500.27 425.016L1502.25 428.25C1503.33 430.058 1503.81 430.865 1504.33 431.647C1504.75 432.277 1505.2 432.89 1506 433.998L1506 434H1508C1515.44 426.426 1527.58 421.384 1538 420C1551.35 419.033 1566.82 418.259 1577.7 427.43C1583.88 433.93 1586.04 441.81 1586.5 450.581L1586.61 452.883C1586.74 455.588 1586.88 458.294 1587 461C1581.12 460.979 1575.24 460.962 1569.36 460.951L1565.81 460.945L1562.12 460.937C1558.59 460.925 1555.05 460.912 1551.52 460.907L1548.13 460.902L1544.91 460.887C1531 460.886 1516.13 461.741 1505.68 472.125L1504 474C1496.36 482.392 1494.66 490.75 1494.7 501.922C1495.55 510.613 1499.69 518.452 1506.03 524.34C1520.27 536.37 1535.06 537.006 1553 536C1565.23 534.688 1575.88 529.902 1584.06 520.625L1587 517L1588 535H1605C1605.02 524.45 1605.04 513.9 1605.05 503.35L1605.05 502.083C1605.05 497.122 1605.06 492.162 1605.07 487.201C1605.08 481.932 1605.09 476.663 1605.09 471.394C1605.09 469.387 1605.1 467.379 1605.1 465.371C1605.11 462.487 1605.11 459.603 1605.11 456.72L1605.11 454.056C1605.12 451.728 1605.12 449.402 1605.09 447.074ZM1553.38 473.907L1550.18 473.902C1537.67 473.839 1526.97 474.527 1517 483C1513.47 487.219 1512.73 491.529 1512.5 496.937C1512.78 503.767 1514.14 508.955 1518.88 514.004C1529.29 522.934 1541.97 522.815 1555 522C1563.63 520.94 1573.88 515.521 1579.54 508.887L1581 507C1586.44 501.221 1587.29 496.019 1587.23 488.297L1587.16 485.125C1587.12 481.416 1587.07 477.708 1587 474C1581.43 473.979 1575.85 473.962 1570.28 473.951L1566.46 473.944L1563.44 473.937C1560.09 473.925 1556.73 473.912 1553.38 473.907ZM1772 404H1754V535H1772V404ZM1437.38 57.6875C1444.53 58.3045 1450.17 60.6024 1455 66C1459.8 71.9063 1460.75 76.4637 1460 84C1457.92 90.5822 1454.42 95.7496 1448.44 99.3125C1441.41 102.76 1433.25 103.366 1425.75 100.875C1418.88 97.8321 1414.38 93.388 1411.66 86.3594C1409.88 80.0026 1410.43 74.6207 1413.66 68.8555C1417.71 63.2522 1422.99 59.4926 1429.81 58.375C1431.32 58.2276 1432.83 58.0938 1434.34 57.96L1434.35 57.9597C1435.36 57.8703 1436.37 57.7809 1437.38 57.6875ZM1683 122L1685.7 122.84C1701.45 128.335 1713.7 140.666 1721.27 155.266C1727.27 167.723 1727.16 179.446 1727.04 192.94V192.943V192.945V192.948C1727.02 194.925 1727 196.94 1727 199H1626C1631.52 211.416 1635.87 217.449 1648.5 222.375C1660.49 226.011 1673.58 225.084 1685 220C1687.48 218.571 1689.8 217.071 1692.1 215.367C1693.99 214.005 1695.89 212.987 1698 212L1699.58 213.766C1705.68 220.553 1711.83 227.285 1718 234C1708.57 246.159 1694.7 253.178 1679.56 255.535C1674.16 256.182 1668.76 256.185 1663.33 256.187L1662.75 256.187L1659.55 256.225C1640.71 256.259 1625.2 250.851 1610 240L1607.85 238.473C1595.77 229.024 1588.19 212.901 1586 198C1584.13 177.943 1588.06 158.904 1601.17 143.082L1603 141L1604.77 138.949C1624.36 117.748 1656.57 113.077 1683 122ZM1677.25 153.25C1682.75 156.916 1686.5 161.886 1689 168L1690 176H1625C1626.25 167.223 1628.27 161.908 1635 156L1637.19 153.938C1649.74 145.288 1664.19 145.982 1677.25 153.25ZM1767 350C1770.81 352.012 1774.05 354.097 1776 358C1776.73 364.384 1775.75 367.795 1772 373C1767.63 375.767 1763.01 375.899 1758 375C1754.02 372.732 1751.46 370.365 1750 366C1749.6 361.808 1749.73 359.519 1751.69 355.75C1756.02 350.603 1760.24 348.795 1767 350Z" fill="white"/>
</svg>
